<svg width="30" height="30" fill="none" xmlns="http://www.w3.org/2000/svg"><path opacity=".8" d="M28.5 18H27V3h1.5a1.5 1.5 0 0 0 0-3h-27a1.5 1.5 0 0 0 0 3H3v15H1.5a1.5 1.5 0 1 0 0 3h12v1.725l-6.825 4.5A1.5 1.5 0 0 0 7.5 30a1.41 1.41 0 0 0 .825-.255l5.175-3.42V28.5a1.5 1.5 0 0 0 3 0v-2.175l5.175 3.42c.242.17.53.258.825.255a1.5 1.5 0 0 0 .825-2.745l-6.825-4.5V21h12a1.5 1.5 0 1 0 0-3ZM24 18H6V3h18v15Zm-12.585-2.61a2.595 2.595 0 0 0 2.64 0l4.5-2.61a2.64 2.64 0 0 0 0-4.5l-4.5-2.61a2.595 2.595 0 0 0-2.64 0 2.565 2.565 0 0 0-1.305 2.28v5.22a2.565 2.565 0 0 0 1.305 2.22Zm1.695-6.87 3.39 1.98-3.42 1.98.03-3.96Z" fill="#101130"/></svg>