<svg width="28" height="30" fill="none" xmlns="http://www.w3.org/2000/svg"><path opacity=".8" d="M20 18H8a1.5 1.5 0 1 0 0 3h12a1.5 1.5 0 1 0 0-3Zm0-6h-9a1.5 1.5 0 1 0 0 3h9a1.5 1.5 0 1 0 0-3Zm6-9h-4.5V1.5a1.5 1.5 0 1 0-3 0V3h-3V1.5a1.5 1.5 0 1 0-3 0V3h-3V1.5a1.5 1.5 0 1 0-3 0V3H2A1.5 1.5 0 0 0 .5 4.5v21A4.5 4.5 0 0 0 5 30h18a4.5 4.5 0 0 0 4.5-4.5v-21A1.5 1.5 0 0 0 26 3Zm-1.5 22.5A1.5 1.5 0 0 1 23 27H5a1.5 1.5 0 0 1-1.5-1.5V6h3v1.5a1.5 1.5 0 0 0 3 0V6h3v1.5a1.5 1.5 0 0 0 3 0V6h3v1.5a1.5 1.5 0 0 0 3 0V6h3v19.5Z" fill="#101130"/></svg>