<svg width="32" height="32" fill="none" xmlns="http://www.w3.org/2000/svg"><path opacity=".8" d="M29.755 1.09A19.65 19.65 0 0 0 26.5.805 19.41 19.41 0 0 0 16 3.88a19.41 19.41 0 0 0-10.5-3c-1.09.005-2.18.1-3.255.285A1.5 1.5 0 0 0 1 2.665v18a1.5 1.5 0 0 0 1.755 1.5A16.348 16.348 0 0 1 15.13 25.03l.18.105h.165a1.365 1.365 0 0 0 1.05 0h.165l.18-.105A16.35 16.35 0 0 1 29.245 22 1.5 1.5 0 0 0 31 20.5v-18a1.5 1.5 0 0 0-1.245-1.41ZM14.5 21.025a19.304 19.304 0 0 0-9-2.22H4v-15c.5-.029 1-.029 1.5 0 3.2-.003 6.33.936 9 2.7v14.52Zm13.5-2.16h-1.5a19.304 19.304 0 0 0-9 2.22V6.505a16.29 16.29 0 0 1 9-2.7c.5-.029 1-.029 1.5 0v15.06Zm1.755 6.225a19.643 19.643 0 0 0-3.255-.285A19.41 19.41 0 0 0 16 27.88a19.409 19.409 0 0 0-10.5-3.075c-1.09.005-2.18.1-3.255.285A1.498 1.498 0 0 0 1 26.815 1.5 1.5 0 0 0 2.755 28a16.348 16.348 0 0 1 12.375 2.865 1.5 1.5 0 0 0 1.74 0A16.35 16.35 0 0 1 29.245 28 1.5 1.5 0 0 0 31 26.815a1.502 1.502 0 0 0-1.245-1.725Z" fill="#101130"/></svg>