<svg width="30" height="31" fill="none" xmlns="http://www.w3.org/2000/svg"><path opacity=".8" d="M28.5 25h-3v-4.5A1.5 1.5 0 0 0 24 19h-7.5v-4.065l1.695.885a1.5 1.5 0 0 0 2.175-1.575l-.6-3.555 2.58-2.535a1.5 1.5 0 0 0 .39-1.5 1.5 1.5 0 0 0-1.215-1.02L18 5.08l-1.65-3.24a1.5 1.5 0 0 0-2.7 0L12 5.08l-3.585.525A1.5 1.5 0 0 0 7.2 6.625a1.5 1.5 0 0 0 .39 1.5l2.64 2.565-.6 3.555a1.5 1.5 0 0 0 2.175 1.575l1.695-.885V19H6a1.5 1.5 0 0 0-1.5 1.5V25h-3A1.5 1.5 0 0 0 0 26.5v3a1.5 1.5 0 0 0 3 0V28h6v1.5a1.5 1.5 0 0 0 3 0v-3a1.5 1.5 0 0 0-1.5-1.5h-3v-3h15v3h-3a1.5 1.5 0 0 0-1.5 1.5v3a1.5 1.5 0 0 0 3 0V28h6v1.5a1.5 1.5 0 0 0 3 0v-3a1.5 1.5 0 0 0-1.5-1.5ZM15 10.945a1.5 1.5 0 0 0-.705.18l-1.2.63.225-1.35a1.499 1.499 0 0 0-.435-1.32l-.975-.96 1.35-.195a1.5 1.5 0 0 0 1.14-.81l.6-1.23.6 1.23a1.5 1.5 0 0 0 1.14.81l1.35.195-.975.96a1.5 1.5 0 0 0-.435 1.32l.225 1.35-1.2-.63a1.499 1.499 0 0 0-.705-.18Z" fill="#101130"/></svg>