<svg width="20" height="20" fill="none" xmlns="http://www.w3.org/2000/svg"><path fill-rule="evenodd" clip-rule="evenodd" d="M13.465 6.86a3.506 3.506 0 0 1-3.507 3.529A3.506 3.506 0 0 1 6.45 6.86a3.505 3.505 0 0 1 3.508-3.528 3.505 3.505 0 0 1 3.507 3.528Zm-3.507 9.807c-2.86 0-5.301-.454-5.301-2.267 0-1.814 2.426-2.284 5.3-2.284 2.86 0 5.301.454 5.301 2.268 0 1.813-2.425 2.283-5.3 2.283Zm5.006-9.743c0 .999-.298 1.928-.82 2.701a.132.132 0 0 0 .089.204c.13.022.266.035.403.039 1.37.036 2.598-.85 2.938-2.185.502-1.982-.974-3.761-2.855-3.761-.204 0-.4.021-.59.06-.026.006-.053.018-.068.042-.018.028-.005.066.013.091a4.84 4.84 0 0 1 .89 2.81Zm2.268 4.337c.92.18 1.525.55 1.776 1.086.212.44.212.952 0 1.392-.384.832-1.62 1.1-2.1 1.168-.1.015-.18-.071-.17-.17.246-2.307-1.707-3.4-2.212-3.652-.021-.011-.026-.029-.024-.04.002-.007.01-.019.027-.02 1.093-.021 2.269.129 2.703.236ZM5.364 9.867c.138-.004.272-.016.403-.04a.132.132 0 0 0 .089-.203 4.804 4.804 0 0 1-.82-2.7c0-1.042.325-2.014.89-2.81.018-.025.03-.063.014-.091-.015-.023-.044-.036-.07-.042a2.934 2.934 0 0 0-.59-.06c-1.88 0-3.357 1.779-2.853 3.761.34 1.334 1.568 2.22 2.937 2.185Zm.133 1.177c.003.012-.002.028-.023.04-.506.252-2.458 1.345-2.213 3.65.01.101-.068.187-.168.173-.48-.07-1.717-.337-2.1-1.17a1.597 1.597 0 0 1 0-1.39c.25-.537.855-.906 1.775-1.088.435-.106 1.61-.256 2.703-.236.017.003.025.015.026.021Z" fill="#3BB77E"/></svg>