<svg width="79" height="15" fill="none" xmlns="http://www.w3.org/2000/svg"><path d="M6.643 1.424a1 1 0 0 1 1.714 0L9.75 3.739a1 1 0 0 0 .631.459l2.633.61a1 1 0 0 1 .53 1.63l-1.772 2.04a1 1 0 0 0-.24.742l.233 2.692a1 1 0 0 1-1.387 1.007L7.89 11.865a1 1 0 0 0-.78 0L4.622 12.92a1 1 0 0 1-1.387-1.007L3.47 9.22a1 1 0 0 0-.241-.742l-1.772-2.04a1 1 0 0 1 .53-1.63l2.633-.61a1 1 0 0 0 .63-.459l1.394-2.315ZM22.643 1.424a1 1 0 0 1 1.714 0l1.393 2.315a1 1 0 0 0 .631.459l2.633.61a1 1 0 0 1 .53 1.63l-1.772 2.04a1 1 0 0 0-.24.742l.233 2.692a1 1 0 0 1-1.387 1.007l-2.488-1.054a1 1 0 0 0-.78 0l-2.488 1.054a1 1 0 0 1-1.387-1.007l.234-2.692a1 1 0 0 0-.241-.742l-1.772-2.04a1 1 0 0 1 .53-1.63l2.633-.61a1 1 0 0 0 .63-.459l1.394-2.315ZM38.643 1.424a1 1 0 0 1 1.714 0l1.393 2.315a1 1 0 0 0 .631.459l2.633.61a1 1 0 0 1 .53 1.63l-1.772 2.04a1 1 0 0 0-.24.742l.233 2.692a1 1 0 0 1-1.387 1.007l-2.488-1.054a1 1 0 0 0-.78 0l-2.488 1.054a1 1 0 0 1-1.387-1.007l.234-2.692a1 1 0 0 0-.241-.742l-1.772-2.04a1 1 0 0 1 .53-1.63l2.633-.61a1 1 0 0 0 .63-.459l1.394-2.315ZM54.643 1.424a1 1 0 0 1 1.714 0l1.393 2.315a1 1 0 0 0 .631.459l2.633.61a1 1 0 0 1 .53 1.63l-1.772 2.04a1 1 0 0 0-.24.742l.233 2.692a1 1 0 0 1-1.387 1.007l-2.488-1.054a1 1 0 0 0-.78 0l-2.488 1.054a1 1 0 0 1-1.387-1.007l.234-2.692a1 1 0 0 0-.241-.742l-1.772-2.04a1 1 0 0 1 .53-1.63l2.633-.61a1 1 0 0 0 .63-.459l1.394-2.315ZM70.643 1.424a1 1 0 0 1 1.714 0l1.393 2.315a1 1 0 0 0 .631.459l2.633.61a1 1 0 0 1 .53 1.63l-1.772 2.04a1 1 0 0 0-.24.742l.233 2.692a1 1 0 0 1-1.387 1.007l-2.488-1.054a1 1 0 0 0-.78 0l-2.488 1.054a1 1 0 0 1-1.387-1.007l.234-2.692a1 1 0 0 0-.241-.742l-1.772-2.04a1 1 0 0 1 .53-1.63l2.633-.61a1 1 0 0 0 .63-.459l1.394-2.315Z" fill="#FFB800"/></svg>