<svg width="116" height="44" fill="none" xmlns="http://www.w3.org/2000/svg"><rect y="3" width="38" height="38" rx="19" fill="#3BB77E"/><path d="M15.432 12.536c.317-.187.793-.364 1.428-.532a7.843 7.843 0 0 1 1.96-.252c.933 0 1.755.14 2.464.42.728.261 1.195.681 1.4 1.26.336.97.7 2.1 1.092 3.388.392 1.288.784 2.623 1.176 4.004.392 1.363.775 2.716 1.148 4.06.373 1.325.7 2.501.98 3.528-.224.261-.56.467-1.008.616-.448.168-.98.252-1.596.252a5.08 5.08 0 0 1-1.148-.112 2.165 2.165 0 0 1-.756-.336 1.882 1.882 0 0 1-.476-.588 6.162 6.162 0 0 1-.308-.84l-.504-1.932h-5.068c-.15.56-.299 1.139-.448 1.736-.15.597-.299 1.176-.448 1.736a5.521 5.521 0 0 1-.84.224c-.28.075-.625.112-1.036.112-.952 0-1.661-.159-2.128-.476-.448-.336-.672-.793-.672-1.372 0-.261.037-.523.112-.784.075-.261.159-.57.252-.924a53.3 53.3 0 0 1 .532-1.876l.784-2.408c.28-.877.579-1.773.896-2.688.317-.915.616-1.773.896-2.576.28-.821.532-1.55.756-2.184.243-.635.43-1.12.56-1.456Zm3.36 3.612c-.261.784-.56 1.661-.896 2.632a47.86 47.86 0 0 0-.868 2.912H20.5a94.151 94.151 0 0 0-.812-2.94c-.261-.97-.504-1.839-.728-2.604h-.168Z" fill="#fff"/><path d="M47.656 16.888c.272-.16.68-.312 1.224-.456a6.722 6.722 0 0 1 1.68-.216c.8 0 1.504.12 2.112.36.624.224 1.024.584 1.2 1.08.288.832.6 1.8.936 2.904.336 1.104.672 2.248 1.008 3.432.336 1.168.664 2.328.984 3.48.32 1.136.6 2.144.84 3.024-.192.224-.48.4-.864.528-.384.144-.84.216-1.368.216-.384 0-.712-.032-.984-.096a1.855 1.855 0 0 1-.648-.288 1.613 1.613 0 0 1-.408-.504 5.282 5.282 0 0 1-.264-.72l-.432-1.656h-4.344c-.128.48-.256.976-.384 1.488a98.427 98.427 0 0 1-.384 1.488 4.73 4.73 0 0 1-.72.192c-.24.064-.536.096-.888.096-.816 0-1.424-.136-1.824-.408-.384-.288-.576-.68-.576-1.176 0-.224.032-.448.096-.672a39.8 39.8 0 0 0 .216-.792c.112-.432.264-.968.456-1.608l.672-2.064c.24-.752.496-1.52.768-2.304l.768-2.208c.24-.704.456-1.328.648-1.872.208-.544.368-.96.48-1.248Zm2.88 3.096c-.224.672-.48 1.424-.768 2.256-.272.816-.52 1.648-.744 2.496H52a80.78 80.78 0 0 0-.696-2.52c-.224-.832-.432-1.576-.624-2.232h-.144Zm22.007 10.512c-.224.224-.552.392-.984.504-.416.128-.92.192-1.512.192a5.278 5.278 0 0 1-1.68-.264c-.528-.176-.96-.6-1.296-1.272l-2.376-4.848c-.24-.496-.456-.96-.648-1.392-.192-.448-.4-.96-.624-1.536l-.144.024c.064.864.096 1.744.096 2.64.016.896.024 1.776.024 2.64v3.72a6.665 6.665 0 0 1-.816.144 7.807 7.807 0 0 1-1.056.072 5.43 5.43 0 0 1-.936-.072 1.433 1.433 0 0 1-.672-.288 1.396 1.396 0 0 1-.408-.576c-.096-.256-.144-.584-.144-.984v-12c.224-.32.568-.56 1.032-.72.464-.16.96-.24 1.488-.24.592 0 1.152.096 1.68.288.544.176.976.592 1.296 1.248l2.4 4.848c.24.496.456.968.648 1.416.192.432.4.936.624 1.512l.12-.024a46.815 46.815 0 0 1-.12-2.592c-.016-.864-.024-1.728-.024-2.592v-3.888c.176-.048.44-.096.792-.144a8.347 8.347 0 0 1 1.08-.072c.704 0 1.24.128 1.608.384.368.24.552.752.552 1.536v12.336Zm2.2-10.68a3.107 3.107 0 0 1-.311-.72 3.17 3.17 0 0 1-.144-.96c0-.624.136-1.072.408-1.344.288-.272.656-.408 1.104-.408h10.464c.112.176.216.416.312.72s.144.624.144.96c0 .624-.144 1.072-.432 1.344-.272.272-.632.408-1.08.408h-2.664v11.088a6.672 6.672 0 0 1-.84.144 8.527 8.527 0 0 1-1.104.072c-.368 0-.696-.032-.984-.096a1.606 1.606 0 0 1-.696-.288 1.296 1.296 0 0 1-.432-.6c-.096-.256-.144-.592-.144-1.008v-9.312h-3.6Zm26.777 11.088a6.672 6.672 0 0 1-.84.144 8.529 8.529 0 0 1-1.104.072c-.368 0-.696-.032-.984-.096a1.606 1.606 0 0 1-.696-.288 1.296 1.296 0 0 1-.432-.6c-.096-.256-.144-.592-.144-1.008v-3.744h-4.608v5.52a6.672 6.672 0 0 1-.84.144 8.527 8.527 0 0 1-1.104.072c-.368 0-.696-.032-.984-.096a1.606 1.606 0 0 1-.696-.288 1.296 1.296 0 0 1-.432-.6c-.096-.256-.144-.592-.144-1.008V16.456c.176-.032.456-.072.84-.12a6.72 6.72 0 0 1 1.104-.096c.368 0 .688.032.96.096.288.048.528.144.72.288.192.144.336.344.432.6.096.256.144.592.144 1.008v3.84h4.608v-5.616c.176-.032.456-.072.84-.12a6.72 6.72 0 0 1 1.104-.096c.368 0 .688.032.96.096.288.048.528.144.72.288.192.144.336.344.432.6.096.256.144.592.144 1.008v12.672Zm2.877-12.216c0-.688.2-1.232.6-1.632.4-.4.944-.6 1.632-.6h7.92c.112.176.208.408.288.696.096.288.144.592.144.912 0 .608-.136 1.04-.408 1.296-.256.256-.6.384-1.032.384h-5.064v2.232h5.4c.112.176.208.408.288.696.096.272.144.568.144.888 0 .608-.128 1.04-.384 1.296s-.6.384-1.032.384h-4.416v2.52h6.168c.112.176.208.408.288.696.096.288.144.592.144.912 0 .608-.136 1.048-.408 1.32-.256.256-.6.384-1.032.384h-7.008c-.688 0-1.232-.2-1.632-.6-.4-.4-.6-.944-.6-1.632V18.688Z" fill="#0F1130"/></svg>